<svg xmlns="http://www.w3.org/2000/svg" viewBox="0 0 240 280" width="180">
  <rect x="10" y="10" width="220" height="260" fill="#fffaf0" stroke="#c9a84c" stroke-width="2" rx="8"/>
  
    <path d="M 65 160 Q 60 155 60 165 L 60 210 Q 60 220 70 220 L 170 220 Q 180 220 180 210 L 180 165 Q 180 155 175 160 L 170 165 L 70 165 Z" fill="#f4c7a1" stroke="#5a3a2a" stroke-width="2"/>
    <!-- 掌纹 -->
    <path d="M 70 175 Q 120 180 170 175" fill="none" stroke="#dba77e" stroke-width="0.6"/>
    <path d="M 75 195 Q 120 200 165 195" fill="none" stroke="#dba77e" stroke-width="0.6"/>
    <path d="M 80 210 Q 120 215 160 210" fill="none" stroke="#dba77e" stroke-width="0.6"/>
  
  
        <!-- 手指食指 半弯 -->
        <path d="M 71 110 Q 71 130 74 145 L 74 155 Q 74 160 71 160 L 89 160 Q 86 160 86 155 L 86 145 Q 89 130 89 110 Z" fill="#f4c7a1" stroke="#5a3a2a" stroke-width="1.5"/>
        <ellipse cx="80" cy="118" rx="6" ry="6" fill="#fce4d0" stroke="#dba77e" stroke-width="0.5"/>
      
        <!-- 手指中指 半弯 -->
        <path d="M 95 110 Q 95 130 98 145 L 98 155 Q 98 160 95 160 L 115 160 Q 112 160 112 155 L 112 145 Q 115 130 115 110 Z" fill="#f4c7a1" stroke="#5a3a2a" stroke-width="1.5"/>
        <ellipse cx="105" cy="118" rx="7" ry="6" fill="#fce4d0" stroke="#dba77e" stroke-width="0.5"/>
      
        <!-- 手指无名指 半弯 -->
        <path d="M 119 110 Q 119 130 122 145 L 122 155 Q 122 160 119 160 L 141 160 Q 138 160 138 155 L 138 145 Q 141 130 141 110 Z" fill="#f4c7a1" stroke="#5a3a2a" stroke-width="1.5"/>
        <ellipse cx="130" cy="118" rx="8" ry="6" fill="#fce4d0" stroke="#dba77e" stroke-width="0.5"/>
      
        <!-- 手指小指 半弯 -->
        <path d="M 145 110 Q 145 130 148 145 L 148 155 Q 148 160 145 160 L 165 160 Q 162 160 162 155 L 162 145 Q 165 130 165 110 Z" fill="#f4c7a1" stroke="#5a3a2a" stroke-width="1.5"/>
        <ellipse cx="155" cy="118" rx="7" ry="6" fill="#fce4d0" stroke="#dba77e" stroke-width="0.5"/>
      
  
      <path d="M 50 145 Q 45 140 40 145 L 38 160 Q 38 168 45 170 L 58 170 Q 65 170 65 160 L 65 152 Q 65 145 58 145 Z" fill="#f4c7a1" stroke="#5a3a2a" stroke-width="1.5"/>
    
  <text x="120" y="250" text-anchor="middle" font-size="16" font-family="'Noto Serif SC',serif" font-weight="bold" fill="#5a3a2a">六甲诀</text>
  <text x="120" y="268" text-anchor="middle" font-size="9" font-family="'Noto Serif SC',serif" fill="#8b6f2a">拇指依次掐四指根部和指尖</text>
</svg>